<svg xmlns="http://www.w3.org/2000/svg" viewBox="0 0 420 680"><defs><radialGradient id="g"><stop stop-color="#123f78"/><stop offset="1" stop-color="#020c1d"/></radialGradient></defs><rect width="420" height="680" rx="28" fill="url(#g)"/><rect x="14" y="14" width="392" height="652" rx="24" fill="none" stroke="#e3b64d" stroke-width="5"/><rect x="27" y="27" width="366" height="626" rx="18" fill="none" stroke="#c99a35"/><g fill="#e7c36a" text-anchor="middle" font-family="Georgia,serif"><text x="210" y="76" font-size="30" font-weight="700">LUMEN GUARDIAN</text><text x="210" y="103" font-size="11" letter-spacing="3">THE LIGHT THAT STAYS WITH YOU</text></g><g fill="none" stroke="#b9d4ff" stroke-opacity=".45"><circle cx="210" cy="315" r="130"/><circle cx="210" cy="315" r="95"/><path d="M72 315h276M210 177v276M112 217l196 196M308 217L112 413"/></g><g transform="translate(210 325)"><ellipse cx="0" cy="48" rx="93" ry="27" fill="#061b39" opacity=".75"/><path d="M-68 40C-96 1-77-77-18-104C43-132 96-80 89-13C85 40 47 76 0 77C-27 77-51 64-68 40Z" fill="#f39a28" stroke="#f4c36c" stroke-width="3"/><path d="M-54 28C-73 3-66-49-29-75C9-101 57-74 66-31C73 4 52 43 19 57C-8 68-37 56-54 28Z" fill="#f8efe2"/><path d="M-61-39L-25-25M-70-6L-28 0M58-43L27-25M69-8L30 1M-42 47L-17 31M51 43L23 28" stroke="#111a2c" stroke-width="9"/><path d="M-17-43L0-58L17-43L0-31Z" fill="#18284d"/><ellipse cx="-25" cy="-13" rx="7" ry="10" fill="#152038"/><ellipse cx="25" cy="-13" rx="7" ry="10" fill="#152038"/><path d="M-13 10Q0 21 13 10Q8 38 0 42Q-8 38-13 10Z" fill="#1c1d24"/></g><circle cx="78" cy="530" r="34" fill="#071a38" stroke="#e3b64d" stroke-width="2"/><text x="78" y="542" text-anchor="middle" fill="#f1d27b" font-size="34" font-family="serif">水</text><text x="130" y="525" fill="#f3d986" font-size="18" font-weight="700">지혜 · 흐름 · 직관</text><text x="130" y="548" fill="#b9cae0" font-size="11">WISDOM · FLOW · INTUITION</text><text x="210" y="595" text-anchor="middle" fill="#f3d986" font-size="18">YOUR GUARDIAN</text><text x="210" y="635" text-anchor="middle" fill="#d8ba65" font-size="14">BASIC · 0001 / 100</text></svg>