<svg xmlns="http://www.w3.org/2000/svg" viewBox="0 0 420 680"><defs><linearGradient id="bg" x1="0" y1="0" x2="1" y2="1"><stop stop-color="#120b03"/><stop offset="1" stop-color="#4b3007"/></linearGradient><radialGradient id="glow"><stop stop-color="#ffd969" stop-opacity=".32"/><stop offset="1" stop-color="#120b03" stop-opacity="0"/></radialGradient></defs><rect x="7" y="7" width="406" height="666" rx="28" fill="url(#bg)" stroke="#f1bf37" stroke-width="8"/><rect x="24" y="24" width="372" height="632" rx="20" fill="none" stroke="#ffe188" stroke-width="2"/><g fill="#ffd75e"><circle cx="55" cy="62" r="3"/><circle cx="360" cy="92" r="3"/><circle cx="332" cy="182" r="2"/><circle cx="75" cy="214" r="2"/><circle cx="345" cy="450" r="3"/><circle cx="70" cy="540" r="3"/></g><circle cx="210" cy="310" r="155" fill="url(#glow)"/><text x="210" y="76" text-anchor="middle" fill="#ffe28c" font-family="Georgia,serif" font-size="31" font-weight="700">LUMEN GUARDIAN</text><text x="210" y="106" text-anchor="middle" fill="#e7c766" font-size="14" letter-spacing="3">LEGENDARY MOTION</text><rect x="118" y="126" width="184" height="34" rx="17" fill="#251707" stroke="#f2ca5c"/><text x="210" y="148" text-anchor="middle" fill="#ffe58d" font-size="12" font-weight="700">ONE &amp; ONLY · MOTION</text><text x="210" y="390" text-anchor="middle" font-size="190">🐉</text><circle cx="96" cy="510" r="34" fill="#251707" stroke="#f4cd61" stroke-width="2"/><text x="96" y="522" text-anchor="middle" fill="#ffe58a" font-size="34" font-family="serif">金</text><text x="145" y="505" fill="#ffe49a" font-size="19" font-weight="700">결단 · 권위 · 완성</text><text x="145" y="530" fill="#dac999" font-size="12">DECISION · AUTHORITY · COMPLETION</text><text x="210" y="578" text-anchor="middle" fill="#ffe18a" font-size="19">YOUR GUARDIAN</text><text x="210" y="608" text-anchor="middle" fill="#e4cc83" font-size="13">ONE &amp; ONLY · PREMIUM CERTIFICATE</text><text x="210" y="638" text-anchor="middle" fill="#ffe886" font-size="16">1 / 1 · UNIQUE ISSUE</text></svg>