<svg xmlns="http://www.w3.org/2000/svg" viewBox="0 0 7410 3900"><rect width="7410" height="3900" fill="#fff"/><g fill="#b22234"><rect width="7410" height="300"/><rect y="600" width="7410" height="300"/><rect y="1200" width="7410" height="300"/><rect y="1800" width="7410" height="300"/><rect y="2400" width="7410" height="300"/><rect y="3000" width="7410" height="300"/><rect y="3600" width="7410" height="300"/></g><rect width="2964" height="2100" fill="#3c3b6e"/><g fill="#fff"><circle cx="247" cy="210" r="70"/><circle cx="741" cy="210" r="70"/><circle cx="1235" cy="210" r="70"/><circle cx="1729" cy="210" r="70"/><circle cx="2223" cy="210" r="70"/><circle cx="2717" cy="210" r="70"/><circle cx="494" cy="420" r="70"/><circle cx="988" cy="420" r="70"/><circle cx="1482" cy="420" r="70"/><circle cx="1976" cy="420" r="70"/><circle cx="2470" cy="420" r="70"/><circle cx="247" cy="630" r="70"/><circle cx="741" cy="630" r="70"/><circle cx="1235" cy="630" r="70"/><circle cx="1729" cy="630" r="70"/><circle cx="2223" cy="630" r="70"/><circle cx="2717" cy="630" r="70"/><circle cx="494" cy="840" r="70"/><circle cx="988" cy="840" r="70"/><circle cx="1482" cy="840" r="70"/><circle cx="1976" cy="840" r="70"/><circle cx="2470" cy="840" r="70"/><circle cx="247" cy="1050" r="70"/><circle cx="741" cy="1050" r="70"/><circle cx="1235" cy="1050" r="70"/><circle cx="1729" cy="1050" r="70"/><circle cx="2223" cy="1050" r="70"/><circle cx="2717" cy="1050" r="70"/><circle cx="494" cy="1260" r="70"/><circle cx="988" cy="1260" r="70"/><circle cx="1482" cy="1260" r="70"/><circle cx="1976" cy="1260" r="70"/><circle cx="2470" cy="1260" r="70"/><circle cx="247" cy="1470" r="70"/><circle cx="741" cy="1470" r="70"/><circle cx="1235" cy="1470" r="70"/><circle cx="1729" cy="1470" r="70"/><circle cx="2223" cy="1470" r="70"/><circle cx="2717" cy="1470" r="70"/><circle cx="494" cy="1680" r="70"/><circle cx="988" cy="1680" r="70"/><circle cx="1482" cy="1680" r="70"/><circle cx="1976" cy="1680" r="70"/><circle cx="2470" cy="1680" r="70"/><circle cx="247" cy="1890" r="70"/><circle cx="741" cy="1890" r="70"/><circle cx="1235" cy="1890" r="70"/><circle cx="1729" cy="1890" r="70"/><circle cx="2223" cy="1890" r="70"/><circle cx="2717" cy="1890" r="70"/></g></svg>